<?xml version="1.0" encoding="UTF-8" standalone="no"?>
<svg
   version="1.1"
   width="320.90723"
   height="260"
   id="svg91"
   viewBox="0 0 320.90722 260"
   sodipodi:docname="8915c9f39b536539114a15674db3aea1.cdr"
   xmlns:inkscape="http://www.inkscape.org/namespaces/inkscape"
   xmlns:sodipodi="http://sodipodi.sourceforge.net/DTD/sodipodi-0.dtd"
   xmlns="http://www.w3.org/2000/svg"
   xmlns:svg="http://www.w3.org/2000/svg">
  <defs
     id="defs95" />
  <sodipodi:namedview
     id="namedview93"
     pagecolor="#ffffff"
     bordercolor="#666666"
     borderopacity="1.0"
     inkscape:pageshadow="2"
     inkscape:pageopacity="0.0"
     inkscape:pagecheckerboard="0" />
  <g
     id="Layer1000"
     transform="translate(-137.03008,-167.7489)">
    <defs
       id="defs13">
      <linearGradient
         id="grad1"
         gradientTransform="scale(1.1109719,0.90011278)"
         x1="123.34252"
         y1="186.3643"
         x2="412.19522"
         y2="186.3643"
         gradientUnits="userSpaceOnUse">
        <stop
           offset="0.0000%"
           stop-color="#a17128"
           stop-opacity="1.0000"
           id="stop2" />
        <stop
           offset="23.0000%"
           stop-color="#daae6b"
           stop-opacity="1.0000"
           id="stop4" />
        <stop
           offset="48.0000%"
           stop-color="#a5762d"
           stop-opacity="1.0000"
           id="stop6" />
        <stop
           offset="72.0000%"
           stop-color="#daae6b"
           stop-opacity="1.0000"
           id="stop8" />
        <stop
           offset="100.0000%"
           stop-color="#a17128"
           stop-opacity="1.0000"
           id="stop10" />
      </linearGradient>
    </defs>
    <path
       d="m 436.4138,231.952 c -0.517,-0.73 -1.4349,-1.0622 -2.2989,-0.8201 -1.334,0.3679 -2.7161,0.5542 -4.1099,0.5542 -8.4921,0 -15.3973,-6.9072 -15.3973,-15.3961 0,-4.1392 1.6181,-8.0232 4.5613,-10.9361 0.4609,-0.4569 0.6879,-1.101 0.614,-1.749 -0.074,-0.6468 -0.4422,-1.222 -0.9953,-1.5661 -36.396,-22.4339 -78.3408,-34.2899 -121.3038,-34.2899 -42.963,0 -84.9082,11.856 -121.303,34.2899 -0.5519,0.3441 -0.9201,0.9193 -0.9941,1.5661 -0.074,0.648 0.1519,1.2901 0.614,1.749 2.9409,2.9152 4.5589,6.7969 4.5589,10.9361 0,8.4889 -6.9057,15.3961 -15.3958,15.3961 -1.3949,0 -2.7779,-0.1863 -4.1091,-0.5542 -0.8561,-0.2378 -1.7779,0.0882 -2.2989,0.8201 -28.7011,40.585 -28.7011,91.0068 0,131.5919 0.521,0.7322 1.4428,1.0621 2.2989,0.82 1.3312,-0.3679 2.7142,-0.553 4.1091,-0.553 8.4901,0 15.3958,6.906 15.3958,15.395 0,4.14 -1.618,8.022 -4.5589,10.936 -0.4621,0.459 -0.688,1.1021 -0.614,1.7501 0.074,0.646 0.4422,1.2209 0.9941,1.565 36.3948,22.434 78.34,34.2919 121.303,34.2919 42.963,0 84.9078,-11.8579 121.3038,-34.2919 0.5531,-0.3441 0.9213,-0.919 0.9953,-1.565 0.0739,-0.648 -0.1531,-1.2931 -0.614,-1.7501 -2.9432,-2.9129 -4.5613,-6.796 -4.5613,-10.936 0,-8.489 6.9052,-15.395 15.3973,-15.395 1.3938,0 2.7759,0.1851 4.1099,0.553 0.864,0.2441 1.7819,-0.0898 2.2989,-0.82 28.698,-40.5851 28.698,-91.0069 0,-131.5919 z"
       style="fill:url(#grad1)"
       id="path15" />
    <path
       d="m 433.7637,360.7753 c -1.2359,-0.2379 -2.4939,-0.3609 -3.7587,-0.3609 -10.8312,0 -19.6441,8.811 -19.6441,19.6419 0,4.3789 1.4238,8.5359 4.0498,11.946 -35.2238,21.172 -75.596,32.351 -116.9268,32.351 -41.3311,0 -81.705,-11.179 -116.9252,-32.351 2.626,-3.4121 4.0482,-7.5671 4.0482,-11.946 0,-10.8309 -8.811,-19.6419 -19.643,-19.6419 -1.264,0 -2.524,0.123 -3.7582,0.3609 -26.5419,-38.4789 -26.5419,-85.875 0,-124.3539 1.2342,0.2389 2.4942,0.3608 3.7582,0.3608 10.832,0 19.643,-8.8109 19.643,-19.6418 0,-4.379 -1.4222,-8.534 -4.0482,-11.9461 35.2202,-21.1719 75.5941,-32.3509 116.9252,-32.3509 41.3308,0 81.703,11.179 116.9268,32.3509 -2.626,3.4101 -4.0498,7.5671 -4.0498,11.9461 0,10.8309 8.8129,19.6418 19.6441,19.6418 1.2648,0 2.5228,-0.1219 3.7587,-0.3608 26.5402,38.4789 26.5402,85.875 0,124.3539 z"
       style="fill:#132245;fill-rule:evenodd"
       id="path17" />
    <path
       d="m 165.9849,244.0531 c -0.119,-0.0961 -0.2871,-0.0862 -0.3971,0.019 -1.9859,2.0049 -6.4159,7.8888 -10.569,17.1997 -4.1388,9.2583 -7.7641,22.1381 -7.7218,36.4751 -0.0423,14.3391 3.583,27.2191 7.7179,36.4771 4.157,9.311 8.587,15.196 10.5729,17.2001 0.11,0.1068 0.2781,0.1148 0.3971,0.019 0.12,-0.0953 0.1489,-0.2622 0.065,-0.3932 -10.048,-15.889 -15.948,-34.4889 -15.897,-53.301 -0.051,-18.8118 5.849,-37.4119 15.897,-53.301 0.0839,-0.1309 0.055,-0.2999 -0.065,-0.3948 z"
       style="fill:#ffffff;fill-rule:evenodd"
       id="path19" />
    <path
       d="m 439.9509,261.2718 c -4.1542,-9.3109 -8.583,-15.1948 -10.571,-17.1997 -0.108,-0.1052 -0.2761,-0.1151 -0.3951,-0.019 -0.1199,0.0949 -0.1488,0.2639 -0.0669,0.3948 10.048,15.8891 15.95,34.4892 15.899,53.301 0.051,18.8121 -5.851,37.412 -15.899,53.301 -0.0819,0.131 -0.053,0.2979 0.0669,0.3932 0.119,0.0958 0.2871,0.0878 0.3951,-0.019 1.988,-2.0041 6.4168,-7.8891 10.573,-17.2001 4.136,-9.258 7.761,-22.138 7.7199,-36.4771 0.0411,-14.337 -3.5839,-27.2168 -7.7219,-36.4751 z"
       style="fill:#ffffff;fill-rule:evenodd"
       id="path21" />
    <path
       d="m 362.0599,225.4552 c -8.3491,-3.287 -18.1499,-6.3771 -29.0749,-8.598 -5.8003,-1.1761 -11.9123,-2.107 -18.2515,-2.7204 0.4096,1.0701 0.1375,2.2773 -0.657,3.0314 11.1376,0.9963 22.1842,2.9979 32.9564,5.9981 16.09,4.49 31.7299,10.97 45.506,20.3479 0.2251,0.1519 0.481,0.1732 0.6021,0.0522 0.1179,-0.1182 0.0618,-0.3402 -0.1352,-0.5182 -3.6068,-3.3239 -14.188,-11.0081 -30.9459,-17.593 z m -81.8291,-11.3178 c -6.3383,0.6134 -12.4495,1.5437 -18.248,2.7198 -10.9231,2.2209 -20.725,5.311 -29.073,8.598 -16.7579,6.5849 -27.3399,14.2691 -30.9478,17.593 -0.1962,0.178 -0.2543,0.4 -0.1332,0.5182 0.121,0.121 0.3741,0.0997 0.602,-0.0522 13.7761,-9.3779 29.416,-15.8579 45.506,-20.3479 10.7731,-3.0008 21.8217,-5.0026 32.9613,-5.9987 -0.8076,-0.7869 -1.0698,-1.9766 -0.6673,-3.0302 z"
       style="fill:#ffffff;fill-rule:evenodd"
       id="path23" />
    <path
       d="m 415.082,236.696 c -4.5902,-3.3551 -8.0121,-8.2922 -9.4782,-13.7851 -0.7469,-2.7389 -1.0179,-5.6089 -0.809,-8.4459 0.197,-2.7569 0.807,-4.691 1.5919,-6.931 0.231,-0.661 -0.0448,-1.377 -0.6607,-1.7121 -11.6411,-6.319 -23.1602,-11.6889 -35.7622,-16.0639 -23.262,-8.047 -47.8749,-12.13 -72.4799,-12.1261 -24.605,-0.004 -49.216,4.0791 -72.4791,12.1261 -12.6028,4.375 -24.122,9.7449 -35.763,16.0639 -0.6148,0.3351 -0.8921,1.0511 -0.6591,1.7121 0.7833,2.24 1.3933,4.1741 1.5903,6.931 0.2097,2.837 -0.0601,5.707 -0.807,8.4459 -1.4661,5.4929 -4.8881,10.43 -9.4783,13.7851 -0.3018,0.2149 -0.466,0.5148 -0.3869,0.7019 0.0751,0.1891 0.3739,0.197 0.701,0.0221 1.5061,-0.8351 3.5411,-2.236 5.6362,-4.5391 2.0718,-2.2949 4.2069,-5.533 5.4858,-9.7651 1.289,-4.1698 1.628,-9.4929 0.1982,-14.7909 l -0.1863,-0.663 -0.0238,-0.1531 0.1639,-0.0779 0.316,-0.1591 1.6762,-0.8529 3.9328,-1.9519 c 2.692,-1.2929 5.506,-2.611 8.456,-3.894 11.7842,-5.1511 25.6481,-10.0582 41.1511,-13.566 15.486,-3.5351 32.597,-5.654 50.476,-5.656 h 0.002 c 17.8789,0.002 34.99,2.1209 50.4759,5.656 15.503,3.5078 29.367,8.4149 41.1511,13.566 2.9489,1.283 5.764,2.6011 8.4561,3.894 l 3.9328,1.9519 1.6761,0.8529 0.3161,0.1591 0.1618,0.0779 -0.0218,0.1531 -0.1871,0.663 c -1.4289,5.298 -1.0899,10.6211 0.199,14.7909 1.279,4.2321 3.414,7.4702 5.4859,9.7651 2.0951,2.3031 4.1301,3.704 5.635,4.5391 0.3279,0.1749 0.6261,0.167 0.7021,-0.0221 0.078,-0.1871 -0.0862,-0.487 -0.3869,-0.7019 z"
       style="fill:#ffffff;fill-rule:evenodd"
       id="path25" />
    <path
       d="m 415.4689,358.098 c -0.076,-0.1891 -0.3742,-0.1971 -0.7021,-0.0202 -1.5049,0.8331 -3.5399,2.234 -5.635,4.5391 -2.0719,2.293 -4.2069,5.5321 -5.4859,9.7631 -1.2889,4.1709 -1.6279,9.493 -0.199,14.7909 l 0.1871,0.665 0.0218,0.1511 -0.1618,0.078 -0.3161,0.161 -1.6761,0.8509 -3.9328,1.952 c -2.6921,1.2931 -5.5072,2.611 -8.4561,3.8939 -11.7841,5.1531 -25.6481,10.0582 -41.1511,13.5661 -15.4859,3.5351 -32.597,5.6551 -50.4759,5.656 h -0.002 c -17.879,-9e-4 -34.99,-2.1209 -50.476,-5.656 -15.503,-3.5079 -29.3669,-8.413 -41.1511,-13.5661 -2.95,-1.2829 -5.764,-2.6008 -8.456,-3.8939 l -3.9328,-1.952 -1.6762,-0.8509 -0.316,-0.161 -0.1639,-0.078 0.0238,-0.1511 0.1863,-0.665 c 1.4298,-5.2979 1.0908,-10.62 -0.1982,-14.7909 -1.2789,-4.231 -3.414,-7.4701 -5.4858,-9.7631 -2.0951,-2.3051 -4.1301,-3.706 -5.6362,-4.5391 -0.3271,-0.1769 -0.6259,-0.1689 -0.701,0.0202 -0.0791,0.187 0.0851,0.4869 0.3869,0.7018 4.5902,3.3551 8.0122,8.2922 9.4783,13.7852 0.7469,2.7388 1.0167,5.6089 0.807,8.4458 -0.197,2.7573 -0.807,4.6911 -1.5903,6.9313 -0.233,0.6607 0.0443,1.3788 0.6591,1.7118 11.641,6.319 23.1602,11.689 35.763,16.064 23.2631,8.047 47.8741,12.13 72.4791,12.126 24.605,0.004 49.2179,-4.079 72.4799,-12.126 12.602,-4.375 24.1211,-9.745 35.7622,-16.064 0.6159,-0.333 0.8917,-1.0511 0.6607,-1.7118 -0.7849,-2.2402 -1.3949,-4.174 -1.5919,-6.9313 -0.2089,-2.8369 0.0621,-5.707 0.809,-8.4458 1.4661,-5.493 4.888,-10.4301 9.4782,-13.7852 0.3007,-0.2149 0.4649,-0.5148 0.3869,-0.7018 z"
       style="fill:#ffffff;fill-rule:evenodd"
       id="path27" />
    <g
       id="Layer1001">
      <path
         d="m 190.9457,302.9413 h -2.8049 v 4.7626 h 10.1443 c 3.8045,0 7.3395,1.1784 7.3395,5.6518 v 16.2687 c 0,4.4734 -3.535,5.6518 -7.3395,5.6518 h -17.4838 c -3.8044,0 -7.3394,-1.1784 -7.3394,-5.6518 v -7.4629 c 0,-0.5267 0.4298,-0.9565 0.9565,-0.9565 h 12.7659 c 0.5267,0 0.9565,0.4298 0.9565,0.9565 v 1.7438 h 2.8049 v -4.7629 h -10.1444 c -3.9125,0 -7.3394,-1.2795 -7.3394,-5.7867 v -16.0662 c 0,-4.5072 3.4269,-5.7867 7.3394,-5.7867 h 17.4838 c 3.9126,0 7.3395,1.2795 7.3395,5.7867 v 7.328 c 0,0.5267 -0.4298,0.9565 -0.9565,0.9565 h -12.7659 c -0.5267,0 -0.9565,-0.4298 -0.9565,-0.9565 z m 34.8327,16.2011 h -2.8049 v 15.1773 c 0,0.5267 -0.4298,0.9565 -0.9565,0.9565 h -12.7659 c -0.5267,0 -0.9565,-0.4298 -0.9565,-0.9565 v -37.0302 c 0,-4.5072 3.4269,-5.7867 7.3394,-5.7867 h 17.4838 c 3.9125,0 7.3395,1.2795 7.3395,5.7867 v 37.0302 c 0,0.5267 -0.4298,0.9565 -0.9566,0.9565 h -12.7658 c -0.5267,0 -0.9565,-0.4298 -0.9565,-0.9565 z m 11.2258,-37.4539 c -0.0619,1.9711 -0.4231,4.1963 -1.6408,5.8026 -1.3375,1.7645 -3.5927,2.2192 -5.6885,2.2192 -1.115,0 -2.2188,-0.1633 -3.2754,-0.5232 -0.9508,-0.3243 -1.8831,-0.7069 -2.7768,-1.1657 -0.7745,-0.3976 -1.5563,-0.7812 -2.349,-1.1415 -0.6255,-0.2847 -1.3028,-0.4776 -1.9943,-0.4776 -0.5111,0 -1.0117,0.1211 -1.3315,0.5478 -0.3205,0.4272 -0.4059,1.32 -0.4301,1.8477 -0.0236,0.5107 -0.4442,0.9125 -0.9556,0.9125 h -3.9259 c -0.2688,0 -0.5,-0.0979 -0.6868,-0.2908 -0.1872,-0.1929 -0.2777,-0.4272 -0.2694,-0.6957 0.0618,-1.9711 0.4231,-4.1966 1.6407,-5.803 1.3376,-1.7644 3.5931,-2.2188 5.6885,-2.2188 1.0831,0 2.1528,0.1664 3.1763,0.5235 0.9556,0.3336 1.8927,0.7194 2.8023,1.1625 0.8029,0.3913 1.6096,0.7745 2.4223,1.1441 0.6259,0.2844 1.3031,0.4776 1.9947,0.4776 0.5104,0 1.012,-0.1212 1.3315,-0.5475 0.3204,-0.4272 0.4059,-1.32 0.4301,-1.8477 0.0236,-0.5108 0.4441,-0.9125 0.9556,-0.9125 h 3.9259 c 0.2688,0 0.4999,0.0979 0.6868,0.2908 0.1871,0.1929 0.2777,0.4272 0.2694,0.6957 z m 13.4625,53.5877 c -3.8044,0 -7.3394,-1.1784 -7.3394,-5.6518 v -32.3349 c 0,-4.5072 3.4269,-5.7867 7.3394,-5.7867 h 17.4838 c 3.9125,0 7.3395,1.2795 7.3395,5.7867 v 32.3349 c 0,4.4734 -3.5351,5.6518 -7.3395,5.6518 z m 56.7529,-11.3709 h 2.8052 v -31.4459 c 0,-0.5268 0.4298,-0.9566 0.9565,-0.9566 h 12.7658 c 0.5268,0 0.9566,0.4298 0.9566,0.9566 v 37.165 c 0,4.4734 -3.535,5.6518 -7.3395,5.6518 h -17.4838 c -3.8044,0 -7.3394,-1.1784 -7.3394,-5.6518 v -15.631 c 0,-0.5267 0.4298,-0.9565 0.9565,-0.9565 h 12.7655 c 0.5268,0 0.9566,0.4298 0.9566,0.9565 z m 27.4935,11.3709 c -3.8044,0 -7.3394,-1.1784 -7.3394,-5.6518 v -32.3349 c 0,-4.5072 3.4269,-5.7867 7.3394,-5.7867 h 17.4838 c 3.9125,0 7.3395,1.2795 7.3395,5.7867 v 32.3349 c 0,4.4734 -3.5351,5.6518 -7.3395,5.6518 z m 44.9094,-32.3349 h -2.8048 v 4.7626 h 10.1443 c 3.8044,0 7.3394,1.1784 7.3394,5.6518 v 16.2687 c 0,4.4734 -3.535,5.6518 -7.3394,5.6518 h -17.4838 c -3.8044,0 -7.3394,-1.1784 -7.3394,-5.6518 v -7.4629 c 0,-0.5267 0.4298,-0.9565 0.9565,-0.9565 h 12.7658 c 0.5268,0 0.9566,0.4298 0.9566,0.9565 v 1.7438 h 2.8048 v -4.7629 h -10.1443 c -3.9125,0 -7.3394,-1.2795 -7.3394,-5.7867 v -16.0662 c 0,-4.5072 3.4269,-5.7867 7.3394,-5.7867 h 17.4838 c 3.9125,0 7.3394,1.2795 7.3394,5.7867 v 7.328 c 0,0.5267 -0.4298,0.9565 -0.9565,0.9565 h -12.7658 c -0.5268,0 -0.9566,-0.4298 -0.9566,-0.9565 z m 32.0951,0 v 4.7626 h 8.6292 c 0.5267,0 0.9565,0.4298 0.9565,0.9565 v 9.5255 c 0,0.5267 -0.4298,0.9565 -0.9565,0.9565 h -8.6292 v 4.7629 h 8.832 c 0.5267,0 0.9565,0.4298 0.9565,0.9565 v 9.4579 c 0,0.5267 -0.4298,0.9565 -0.9565,0.9565 h -22.554 c -0.5268,0 -0.9566,-0.4298 -0.9566,-0.9565 v -41.8603 c 0,-0.5268 0.4298,-0.9566 0.9566,-0.9566 h 22.4864 c 0.5267,0 0.9565,0.4298 0.9565,0.9566 v 9.5254 c 0,0.5267 -0.4298,0.9565 -0.9565,0.9565 z m -10.3582,-13.929 v -3.5079 c 0,-0.4467 0.2959,-0.8235 0.7298,-0.9294 l 17.8284,-4.3471 c 0.295,-0.0718 0.5787,-0.0102 0.8176,0.1773 0.2388,0.1874 0.3657,0.4486 0.3657,0.7521 v 5.7765 c 0,0.4878 -0.3613,0.8937 -0.8459,0.9502 l -17.8285,2.0785 c -0.2809,0.0328 -0.5353,-0.0475 -0.7467,-0.2356 -0.2111,-0.1882 -0.3204,-0.4317 -0.3204,-0.7146 z m -175.581,13.929 h -2.8049 v 4.7626 h 2.8049 z m 34.8326,0 h -2.8048 v 20.964 h 2.8048 z m 84.2464,0 h -2.8048 v 20.964 h 2.8048 z"
         style="fill:#a2732a;fill-rule:evenodd"
         id="path29" />
      <path
         d="m 191.9022,304.6175 h 12.7659 v -7.328 c 0,-3.8924 -2.9592,-4.8301 -6.383,-4.8301 h -17.4838 c -3.4237,0 -6.3829,0.9377 -6.3829,4.8301 v 16.0662 c 0,3.8925 2.9592,4.8302 6.3829,4.8302 h 10.3283 c 0.4426,0 0.7726,0.3303 0.7726,0.7728 v 5.1302 c 0,0.4426 -0.33,0.7729 -0.7726,0.7729 h -3.1728 c -0.4425,0 -0.7725,-0.3303 -0.7725,-0.7729 v -1.9274 h -12.7659 v 7.4629 c 0,3.8392 3.0533,4.6953 6.3829,4.6953 h 17.4838 c 3.3297,0 6.383,-0.8561 6.383,-4.6953 v -16.2687 c 0,-3.8392 -3.0533,-4.6953 -6.383,-4.6953 h -10.3283 c -0.4422,0 -0.7725,-0.3303 -0.7725,-0.7725 v -5.1305 c 0,-0.4423 0.3303,-0.7726 0.7725,-0.7726 h 3.1728 c 0.4423,0 0.7726,0.3303 0.7726,0.7726 z m 34.8327,29.7022 h 12.7658 v -37.0302 c 0,-3.8924 -2.9591,-4.8301 -6.3829,-4.8301 H 215.634 c -3.4237,0 -6.3829,0.9377 -6.3829,4.8301 v 37.0302 h 12.7659 v -15.4961 c 0,-0.3514 0.2863,-0.6377 0.6376,-0.6377 h 3.4426 c 0.3514,0 0.6377,0.2863 0.6377,0.6377 z m 0,-31.5623 v 5.2653 c 0,0.3514 -0.2863,0.6377 -0.6377,0.6377 h -3.4426 c -0.3513,0 -0.6376,-0.2863 -0.6376,-0.6377 v -5.2653 c 0,-0.4423 0.3303,-0.7726 0.7725,-0.7726 h 3.1728 c 0.4423,0 0.7726,0.3303 0.7726,0.7726 z m 9.3131,-21.0989 h -3.9259 c -0.038,0.8252 -0.1741,1.7824 -0.6205,2.3776 -0.5066,0.6757 -1.2735,0.9301 -2.0967,0.9301 -0.8309,0 -1.6376,-0.2213 -2.3904,-0.5634 -0.8207,-0.373 -1.635,-0.7601 -2.4455,-1.1548 -0.8759,-0.427 -1.7782,-0.7981 -2.6984,-1.1192 -0.9234,-0.322 -1.8844,-0.4703 -2.8613,-0.4703 -1.7696,0 -3.7882,0.339 -4.9261,1.8401 -1.0723,1.4144 -1.3908,3.4633 -1.4469,5.2552 h 3.9259 c 0.0379,-0.8252 0.1741,-1.7824 0.6205,-2.3777 0.5069,-0.6759 1.2731,-0.9303 2.0967,-0.9303 0.8309,0 1.6375,0.2212 2.3903,0.5634 0.8061,0.3666 1.6022,0.7566 2.3898,1.1612 0.8522,0.4374 1.7424,0.8022 2.6486,1.1111 0.9581,0.3265 1.9561,0.4723 2.9668,0.4723 1.7699,0 3.7882,-0.3393 4.9262,-1.8404 1.0722,-1.4144 1.3908,-3.4633 1.4469,-5.2549 z m 14.4187,52.6612 h 17.4838 c 3.3297,0 6.3829,-0.8561 6.3829,-4.6953 v -32.3349 c 0,-3.8924 -2.9592,-4.8301 -6.3829,-4.8301 h -17.4838 c -3.4237,0 -6.3829,0.9377 -6.3829,4.8301 v 32.3349 c 0,3.8392 3.0532,4.6953 6.3829,4.6953 z m 11.1009,-31.5623 v 21.3315 c 0,0.4426 -0.33,0.7729 -0.7726,0.7729 h -3.1728 c -0.4426,0 -0.7726,-0.3303 -0.7726,-0.7729 v -21.3315 c 0,-0.4423 0.3304,-0.7726 0.7726,-0.7726 h 3.1728 c 0.4422,0 0.7726,0.3303 0.7726,0.7726 z m 62.1795,-10.298 h -12.7658 v 31.6295 c 0,0.4426 -0.33,0.7729 -0.7726,0.7729 h -3.1728 c -0.4425,0 -0.7729,-0.3303 -0.7729,-0.7729 v -10.0955 h -12.7655 v 15.631 c 0,3.8392 3.0533,4.6953 6.3829,4.6953 h 17.4838 c 3.3297,0 6.3829,-0.8561 6.3829,-4.6953 z m 10.966,41.8603 h 17.4838 c 3.3297,0 6.3829,-0.8561 6.3829,-4.6953 v -32.3349 c 0,-3.8924 -2.9592,-4.8301 -6.3829,-4.8301 h -17.4838 c -3.4237,0 -6.3829,0.9377 -6.3829,4.8301 v 32.3349 c 0,3.8392 3.0532,4.6953 6.3829,4.6953 z m 11.1009,-31.5623 v 21.3315 c 0,0.4426 -0.33,0.7729 -0.7726,0.7729 h -3.1728 c -0.4426,0 -0.7726,-0.3303 -0.7726,-0.7729 v -21.3315 c 0,-0.4423 0.3304,-0.7726 0.7726,-0.7726 h 3.1728 c 0.4422,0 0.7726,0.3303 0.7726,0.7726 z m 34.7651,1.8601 h 12.7658 v -7.328 c 0,-3.8924 -2.9592,-4.8301 -6.3829,-4.8301 h -17.4838 c -3.4237,0 -6.3829,0.9377 -6.3829,4.8301 v 16.0662 c 0,3.8925 2.9592,4.8302 6.3829,4.8302 h 10.3283 c 0.4426,0 0.7726,0.3303 0.7726,0.7728 v 5.1302 c 0,0.4426 -0.33,0.7729 -0.7726,0.7729 h -3.1728 c -0.4426,0 -0.7726,-0.3303 -0.7726,-0.7729 v -1.9274 h -12.7658 v 7.4629 c 0,3.8392 3.0532,4.6953 6.3829,4.6953 h 17.4838 c 3.3297,0 6.3829,-0.8561 6.3829,-4.6953 v -16.2687 c 0,-3.8392 -3.0532,-4.6953 -6.3829,-4.6953 h -10.3283 c -0.4422,0 -0.7726,-0.3303 -0.7726,-0.7725 v -5.1305 c 0,-0.4423 0.3304,-0.7726 0.7726,-0.7726 h 3.1728 c 0.4422,0 0.7726,0.3303 0.7726,0.7726 z m 17.4165,29.7022 h 22.554 v -9.4579 h -9.1508 c -0.3514,0 -0.6377,-0.2863 -0.6377,-0.6377 v -5.4005 c 0,-0.3514 0.2863,-0.6377 0.6377,-0.6377 h 8.948 v -9.5255 h -8.948 c -0.3514,0 -0.6377,-0.2863 -0.6377,-0.6377 v -5.4002 c 0,-0.3514 0.2863,-0.6377 0.6377,-0.6377 h 9.0832 v -9.5254 h -22.4864 z m 4.3203,-45.3074 17.8284,-2.0785 v -5.7765 l -17.8284,4.3471 z"
         style="fill:#c49750;fill-rule:evenodd"
         id="path31" />
      <path
         d="m 192.8587,303.661 h 10.8528 v -6.3715 c 0,-3.3309 -2.6151,-3.8736 -5.4264,-3.8736 h -17.4838 c -2.8112,0 -5.4263,0.5427 -5.4263,3.8736 v 16.0662 c 0,3.331 2.6151,3.8736 5.4263,3.8736 h 10.3283 c 0.9706,0 1.7291,0.7589 1.7291,1.7294 v 5.1302 c 0,0.9706 -0.7585,1.7294 -1.7291,1.7294 h -3.1728 c -0.9705,0 -1.7291,-0.7588 -1.7291,-1.7294 v -0.9708 H 175.375 v 6.5063 c 0,3.2729 2.7356,3.7387 5.4263,3.7387 h 17.4838 c 2.6907,0 5.4264,-0.4658 5.4264,-3.7387 v -16.2687 c 0,-3.2729 -2.7357,-3.7387 -5.4264,-3.7387 h -10.3283 c -0.9702,0 -1.7291,-0.7589 -1.7291,-1.7291 v -5.1305 c 0,-0.9703 0.7589,-1.7291 1.7291,-1.7291 h 3.1728 c 0.9703,0 1.7291,0.7588 1.7291,1.7291 z m 34.8327,29.7021 h 10.8528 v -36.0736 c 0,-3.3309 -2.6151,-3.8736 -5.4264,-3.8736 H 215.634 c -2.8112,0 -5.4264,0.5427 -5.4264,3.8736 v 36.0736 h 10.8528 v -14.5395 c 0,-0.8794 0.7149,-1.5943 1.5942,-1.5943 h 3.4426 c 0.8794,0 1.5942,0.7149 1.5942,1.5943 z m 0,-30.6057 v 5.2653 c 0,0.8794 -0.7148,1.5943 -1.5942,1.5943 h -3.4426 c -0.8793,0 -1.5942,-0.7149 -1.5942,-1.5943 v -5.2653 c 0,-0.9703 0.7589,-1.7291 1.7291,-1.7291 h 3.1728 c 0.9703,0 1.7291,0.7588 1.7291,1.7291 z m 7.3401,-20.1423 h -2.0364 c -0.1027,0.7167 -0.3103,1.4376 -0.7283,1.995 -0.6916,0.9221 -1.7351,1.3126 -2.8619,1.3126 -0.9687,0 -1.9083,-0.2499 -2.7861,-0.6491 -0.8286,-0.3766 -1.6506,-0.7672 -2.4688,-1.1657 -0.842,-0.4104 -1.7099,-0.7675 -2.5944,-1.0758 -0.821,-0.2863 -1.6781,-0.417 -2.5463,-0.417 -1.4322,0 -3.2318,0.2318 -4.1638,1.4612 -0.7534,0.9942 -1.0703,2.4118 -1.1928,3.7209 h 2.0365 c 0.1027,-0.7167 0.3102,-1.4376 0.7282,-1.995 0.6916,-0.9224 1.7345,-1.313 2.862,-1.313 0.9689,0 1.9082,0.25 2.7863,0.6492 0.8201,0.373 1.6293,0.7697 2.4306,1.181 0.8111,0.4164 1.658,0.7627 2.5204,1.0566 0.8574,0.2924 1.7537,0.4212 2.6582,0.4212 1.4326,0 3.2315,-0.2318 4.1638,-1.4616 0.7534,-0.9938 1.0704,-2.4114 1.1928,-3.7205 z m 15.4352,50.748 h 17.4838 c 2.6907,0 5.4264,-0.4658 5.4264,-3.7387 v -32.3349 c 0,-3.3309 -2.6152,-3.8736 -5.4264,-3.8736 h -17.4838 c -2.8112,0 -5.4264,0.5427 -5.4264,3.8736 v 32.3349 c 0,3.2729 2.7357,3.7387 5.4264,3.7387 z m 12.0574,-30.6057 v 21.3315 c 0,0.9706 -0.7585,1.7294 -1.7291,1.7294 h -3.1728 c -0.9706,0 -1.7291,-0.7588 -1.7291,-1.7294 v -21.3315 c 0,-0.9703 0.7589,-1.7291 1.7291,-1.7291 h 3.1728 c 0.9703,0 1.7291,0.7588 1.7291,1.7291 z m 60.2665,-9.3415 h -10.8528 v 30.673 c 0,0.9706 -0.7585,1.7294 -1.7291,1.7294 h -3.1728 c -0.9705,0 -1.7294,-0.7588 -1.7294,-1.7294 v -9.139 H 294.454 v 14.6745 c 0,3.2729 2.7357,3.7387 5.4264,3.7387 h 17.4838 c 2.6907,0 5.4264,-0.4658 5.4264,-3.7387 z m 11.9225,39.9472 h 17.4838 c 2.6907,0 5.4264,-0.4658 5.4264,-3.7387 v -32.3349 c 0,-3.3309 -2.6152,-3.8736 -5.4264,-3.8736 h -17.4838 c -2.8112,0 -5.4264,0.5427 -5.4264,3.8736 v 32.3349 c 0,3.2729 2.7357,3.7387 5.4264,3.7387 z m 12.0574,-30.6057 v 21.3315 c 0,0.9706 -0.7585,1.7294 -1.7291,1.7294 h -3.1728 c -0.9706,0 -1.7291,-0.7588 -1.7291,-1.7294 v -21.3315 c 0,-0.9703 0.7589,-1.7291 1.7291,-1.7291 h 3.1728 c 0.9703,0 1.7291,0.7588 1.7291,1.7291 z m 34.7651,0.9036 h 10.8528 v -6.3715 c 0,-3.3309 -2.6152,-3.8736 -5.4264,-3.8736 h -17.4838 c -2.8112,0 -5.4264,0.5427 -5.4264,3.8736 v 16.0662 c 0,3.331 2.6152,3.8736 5.4264,3.8736 h 10.3283 c 0.9706,0 1.7291,0.7589 1.7291,1.7294 v 5.1302 c 0,0.9706 -0.7585,1.7294 -1.7291,1.7294 h -3.1728 c -0.9706,0 -1.7291,-0.7588 -1.7291,-1.7294 v -0.9708 h -10.8528 v 6.5063 c 0,3.2729 2.7357,3.7387 5.4264,3.7387 h 17.4838 c 2.6907,0 5.4264,-0.4658 5.4264,-3.7387 v -16.2687 c 0,-3.2729 -2.7357,-3.7387 -5.4264,-3.7387 h -10.3283 c -0.9702,0 -1.7291,-0.7589 -1.7291,-1.7291 v -5.1305 c 0,-0.9703 0.7589,-1.7291 1.7291,-1.7291 h 3.1728 c 0.9702,0 1.7291,0.7588 1.7291,1.7291 z m 17.4165,29.7021 h 20.641 v -7.5448 h -8.1943 c -0.8794,0 -1.5942,-0.7148 -1.5942,-1.5942 v -5.4005 c 0,-0.8794 0.7148,-1.5943 1.5942,-1.5943 h 7.9915 v -7.6123 h -7.9915 c -0.8794,0 -1.5942,-0.7149 -1.5942,-1.5943 v -5.4002 c 0,-0.8794 0.7148,-1.5942 1.5942,-1.5942 h 8.1267 v -7.6124 h -20.5734 z m 4.3203,-45.4253 15.9154,-1.8556 v -3.7072 l -15.9154,3.8806 z"
         style="fill:#ffffff;fill-rule:evenodd"
         id="path33" />
      <path
         d="m 193.8146,302.7044 h 8.9404 v -5.4149 c 0,-2.7232 -2.2702,-2.9171 -4.4699,-2.9171 h -17.4838 c -2.1997,0 -4.4698,0.1939 -4.4698,2.9171 v 16.0662 c 0,2.7233 2.2701,2.9171 4.4698,2.9171 h 10.3283 c 1.4986,0 2.6857,1.1874 2.6857,2.6859 v 5.1302 c 0,1.4986 -1.1871,2.686 -2.6857,2.686 h -3.1728 c -1.4985,0 -2.6856,-1.1874 -2.6856,-2.686 v -0.0143 h -8.9397 v 5.5498 c 0,2.6375 2.3735,2.7822 4.4698,2.7822 h 17.4838 c 2.0964,0 4.4699,-0.1447 4.4699,-2.7822 v -16.2687 c 0,-2.6375 -2.3735,-2.7822 -4.4699,-2.7822 h -10.3283 c -1.4982,0 -2.6856,-1.1874 -2.6856,-2.6856 v -5.1305 c 0,-1.4983 1.1874,-2.6857 2.6856,-2.6857 h 3.1728 c 1.4804,0 2.6576,1.1597 2.685,2.6327 z m 34.8333,29.7022 h 8.9398 v -35.1171 c 0,-2.7232 -2.2702,-2.9171 -4.4699,-2.9171 H 215.634 c -2.1997,0 -4.4698,0.1939 -4.4698,2.9171 v 35.1171 h 8.9397 v -13.583 c 0,-1.4074 1.1434,-2.5508 2.5507,-2.5508 h 3.4426 c 1.4074,0 2.5507,1.1434 2.5507,2.5508 z m 0,-29.6492 v 5.2653 c 0,1.4074 -1.1433,2.5508 -2.5507,2.5508 h -3.4426 c -1.4073,0 -2.5507,-1.1434 -2.5507,-2.5508 v -5.2653 c 0,-1.4983 1.1874,-2.6857 2.6856,-2.6857 h 3.1728 c 1.4983,0 2.6856,1.1874 2.6856,2.6857 z m 5.2862,-19.1858 h -0.156 c -0.1521,0.5774 -0.3864,1.1328 -0.7461,1.6124 -0.7234,0.9645 -1.7542,1.4941 -2.8995,1.6478 1.0388,-0.0431 2.3253,-0.258 2.9439,-1.0739 0.4486,-0.5918 0.7075,-1.3978 0.8577,-2.1863 z m -15.3858,0.009 c -1.0382,0.0431 -2.3228,0.2586 -2.9404,1.0733 -0.4486,0.5921 -0.7075,1.3981 -0.8577,2.1866 h 0.1559 c 0.1521,-0.5774 0.3865,-1.1329 0.7461,-1.6124 0.7228,-0.9639 1.7517,-1.4931 2.8961,-1.6475 z m 31.9184,48.8258 h 17.4838 c 2.0964,0 4.4699,-0.1447 4.4699,-2.7822 v -32.3349 c 0,-2.7232 -2.2702,-2.9171 -4.4699,-2.9171 h -17.4838 c -2.1997,0 -4.4698,0.1939 -4.4698,2.9171 v 32.3349 c 0,2.6375 2.3734,2.7822 4.4698,2.7822 z m 13.0139,-29.6492 v 21.3315 c 0,1.4986 -1.187,2.686 -2.6856,2.686 h -3.1728 c -1.4986,0 -2.6856,-1.1874 -2.6856,-2.686 v -21.3315 c 0,-1.4983 1.1874,-2.6857 2.6856,-2.6857 h 3.1728 c 1.4983,0 2.6856,1.1874 2.6856,2.6857 z m 58.3535,-8.385 h -8.9398 v 29.7165 c 0,1.4986 -1.187,2.686 -2.6856,2.686 h -3.1728 c -1.4985,0 -2.6859,-1.1874 -2.6859,-2.686 v -8.1824 h -8.9394 v 13.7179 c 0,2.6375 2.3734,2.7822 4.4698,2.7822 h 17.4838 c 2.0964,0 4.4699,-0.1447 4.4699,-2.7822 z m 12.879,38.0342 h 17.4838 c 2.0964,0 4.4699,-0.1447 4.4699,-2.7822 v -32.3349 c 0,-2.7232 -2.2702,-2.9171 -4.4699,-2.9171 h -17.4838 c -2.1997,0 -4.4698,0.1939 -4.4698,2.9171 v 32.3349 c 0,2.6375 2.3734,2.7822 4.4698,2.7822 z m 13.0139,-29.6492 v 21.3315 c 0,1.4986 -1.187,2.686 -2.6856,2.686 h -3.1728 c -1.4986,0 -2.6856,-1.1874 -2.6856,-2.686 v -21.3315 c 0,-1.4983 1.1874,-2.6857 2.6856,-2.6857 h 3.1728 c 1.4983,0 2.6856,1.1874 2.6856,2.6857 z m 34.7645,-0.053 h 8.9404 v -5.4149 c 0,-2.7232 -2.2702,-2.9171 -4.4699,-2.9171 h -17.4838 c -2.1997,0 -4.4699,0.1939 -4.4699,2.9171 v 16.0662 c 0,2.7233 2.2702,2.9171 4.4699,2.9171 h 10.3283 c 1.4986,0 2.6856,1.1874 2.6856,2.6859 v 5.1302 c 0,1.4986 -1.187,2.686 -2.6856,2.686 h -3.1728 c -1.4986,0 -2.6856,-1.1874 -2.6856,-2.686 v -0.0143 h -8.9398 v 5.5498 c 0,2.6375 2.3735,2.7822 4.4699,2.7822 h 17.4838 c 2.0964,0 4.4699,-0.1447 4.4699,-2.7822 v -16.2687 c 0,-2.6375 -2.3735,-2.7822 -4.4699,-2.7822 h -10.3283 c -1.4983,0 -2.6856,-1.1874 -2.6856,-2.6856 v -5.1305 c 0,-1.4983 1.1873,-2.6857 2.6856,-2.6857 h 3.1728 c 1.4804,0 2.6576,1.1597 2.685,2.6327 z m 17.4171,29.7022 h 18.7279 v -5.6317 h -7.2377 c -1.4074,0 -2.5508,-1.1434 -2.5508,-2.5508 v -5.4005 c 0,-1.4074 1.1434,-2.5508 2.5508,-2.5508 h 7.0349 v -5.6993 h -7.0349 c -1.4074,0 -2.5508,-1.1434 -2.5508,-2.5508 v -5.4002 c 0,-1.4074 1.1434,-2.5508 2.5508,-2.5508 h 7.1701 v -5.6993 h -18.6603 z m 5.4494,-45.6749 12.8733,-1.5012 v -1.6379 z"
         style="fill:#f5ece0;fill-rule:evenodd"
         id="path35" />
      <path
         d="m 193.8146,302.7044 h 8.9404 v -5.4149 c 0,-2.7232 -2.2702,-2.9171 -4.4699,-2.9171 h -17.4838 c -2.1997,0 -4.4698,0.1939 -4.4698,2.9171 v 5.8737 c 2.8198,0.6913 5.8023,1.3574 8.9397,1.997 v -2.4028 c 0,-1.4983 1.1874,-2.6857 2.6856,-2.6857 h 3.1728 c 1.4804,0 2.6576,1.1597 2.685,2.6327 z m 215.0334,2.6267 c -2.8603,0.5736 -5.8386,1.1261 -8.9394,1.6538 v -12.6125 h 18.6603 v 5.6993 h -7.1701 c -1.4074,0 -2.5508,1.1434 -2.5508,2.5508 z m -33.2649,5.0339 c -3.4394,0.3854 -6.9667,0.7461 -10.5748,1.0808 v -14.1563 c 0,-2.7232 2.2702,-2.9171 4.4699,-2.9171 h 17.4838 c 2.1997,0 4.4699,0.1939 4.4699,2.9171 v 5.4149 h -8.9404 c -0.0274,-1.473 -1.2046,-2.6327 -2.685,-2.6327 h -3.1728 c -1.4983,0 -2.6856,1.1874 -2.6856,2.6857 v 5.1305 c 0,1.1239 0.6686,2.0731 1.635,2.4771 z m -18.9163,1.7989 c -2.9331,0.2318 -5.9162,0.446 -8.9398,0.6434 v -10.0499 c 0,-1.4983 -1.1873,-2.6857 -2.6856,-2.6857 h -3.1728 c -1.4982,0 -2.6856,1.1874 -2.6856,2.6857 v 10.5581 c -2.9429,0.1569 -5.9267,0.2953 -8.9397,0.419 v -16.445 c 0,-2.7232 2.2701,-2.9171 4.4698,-2.9171 h 17.4838 c 2.1997,0 4.4699,0.1939 4.4699,2.9171 z m -34.8327,1.8697 c -2.9532,0.0886 -5.9324,0.1632 -8.9398,0.22 v -19.8812 h 8.9398 z m -49.4137,-0.022 c -3.0096,-0.0934 -5.9924,-0.2022 -8.9398,-0.3281 v -10.9261 c 0,-1.4983 -1.1873,-2.6857 -2.6856,-2.6857 h -3.1728 c -1.4982,0 -2.6856,1.1874 -2.6856,2.6857 v 10.511 c -3.0191,-0.1646 -6.0003,-0.3457 -8.9397,-0.5434 v -15.4355 c 0,-2.7232 2.2701,-2.9171 4.4698,-2.9171 h 17.4838 c 2.1997,0 4.4699,0.1939 4.4699,2.9171 z m -34.8327,-1.9054 c -9.3227,-0.748 -18.1664,-1.665 -26.4235,-2.7309 v -12.0858 c 0,-2.7232 2.2701,-2.9171 4.4698,-2.9171 h 17.4838 c 2.1997,0 4.4699,0.1939 4.4699,2.9171 z m -8.9398,-9.3488 v 5.2653 c 0,1.4074 -1.1433,2.5508 -2.5507,2.5508 h -3.4426 c -1.4073,0 -2.5507,-1.1434 -2.5507,-2.5508 v -5.2653 c 0,-1.4983 1.1874,-2.6857 2.6856,-2.6857 h 3.1728 c 1.4983,0 2.6856,1.1874 2.6856,2.6857 z m 5.2862,-19.1858 h -0.156 c -0.1521,0.5774 -0.3864,1.1328 -0.7461,1.6124 -0.7234,0.9645 -1.7542,1.4941 -2.8995,1.6478 1.0388,-0.0431 2.3253,-0.258 2.9439,-1.0739 0.4486,-0.5918 0.7075,-1.3978 0.8577,-2.1863 z m -15.3858,0.009 c -1.0382,0.0431 -2.3228,0.2586 -2.9404,1.0733 -0.4486,0.5921 -0.7075,1.3981 -0.8577,2.1866 h 0.1559 c 0.1521,-0.5774 0.3865,-1.1329 0.7461,-1.6124 0.7228,-0.9639 1.7517,-1.4931 2.8961,-1.6475 z m 186.8097,3.1509 12.8733,-1.5012 v -1.6379 z"
         style="fill:#ffffff;fill-rule:evenodd"
         id="path37" />
    </g>
    <defs
       id="defs51">
      <linearGradient
         id="grad2"
         gradientTransform="scale(0.66820823,1.4965395)"
         x1="423.34378"
         y1="124.23508"
         x2="467.04391"
         y2="124.23508"
         gradientUnits="userSpaceOnUse">
        <stop
           offset="0.0000%"
           stop-color="#a17128"
           stop-opacity="1.0000"
           id="stop40" />
        <stop
           offset="23.0000%"
           stop-color="#daae6b"
           stop-opacity="1.0000"
           id="stop42" />
        <stop
           offset="48.0000%"
           stop-color="#a5762d"
           stop-opacity="1.0000"
           id="stop44" />
        <stop
           offset="72.0000%"
           stop-color="#daae6b"
           stop-opacity="1.0000"
           id="stop46" />
        <stop
           offset="100.0000%"
           stop-color="#a17128"
           stop-opacity="1.0000"
           id="stop48" />
      </linearGradient>
    </defs>
    <path
       d="m 312.0826,211.7404 c -2.206,0.9682 -3.2233,2.7966 -3.6934,4.2422 -1.7324,-0.1833 -5.7151,-0.2965 -8.4719,2.0168 -0.5402,0.4532 -0.9959,0.9697 -1.3821,1.519 v -4.8749 c 0.3672,0.0296 0.7942,0.0519 1.2717,0.0519 1.9801,0 4.7349,-0.371 6.8004,-2.1046 3.5353,-2.9662 3.4921,-8.6135 3.4882,-8.8522 l -0.0129,-0.8571 -0.0452,-0.009 c 0.0311,-3.0712 2.0452,-4.5137 2.0452,-4.5137 -2.2056,0.9682 -3.2233,2.7965 -3.6929,4.2418 -1.7329,-0.1829 -5.7156,-0.2957 -8.4724,2.0171 -0.5402,0.4533 -0.9959,0.9698 -1.3821,1.5194 v -3.2892 c 1.1044,-1.0138 4.151,-4.1607 4.151,-8.0218 0,-4.6151 -4.3539,-8.2113 -4.5395,-8.3623 l -0.6647,-0.5411 -0.6647,0.5411 c -0.1853,0.151 -4.5394,3.7472 -4.5394,8.3623 0,3.8611 3.0469,7.008 4.1509,8.0218 v 3.2888 c -0.3863,-0.5496 -0.8418,-1.0657 -1.3818,-1.519 -2.7563,-2.3128 -6.7398,-2.2 -8.4722,-2.0171 -0.4701,-1.4453 -1.4875,-3.2736 -3.693,-4.2418 0,0 2.014,1.4425 2.0448,4.514 l -0.0444,0.009 -0.0133,0.8571 c -0.003,0.2387 -0.0469,5.886 3.4886,8.8522 2.0654,1.7336 4.8199,2.1046 6.8003,2.1046 0.4771,0 0.9043,-0.0223 1.271,-0.0519 v 4.8745 c -0.3863,-0.5492 -0.8418,-1.0654 -1.3818,-1.5186 -2.7563,-2.3128 -6.7398,-2.2001 -8.4722,-2.0168 -0.4701,-1.4456 -1.4875,-3.274 -3.693,-4.2422 0,0 2.014,1.4426 2.0448,4.5138 l -0.0444,0.008 -0.0133,0.8574 c -0.003,0.2387 -0.0469,5.8857 3.4886,8.8523 2.0654,1.7331 4.8207,2.1041 6.8008,2.1041 0.477,0 0.9038,-0.0222 1.2705,-0.0511 v 4.8742 c -0.3863,-0.5493 -0.8418,-1.0657 -1.3818,-1.5186 -2.7563,-2.3133 -6.7398,-2.2002 -8.4722,-2.0172 -0.4701,-1.4453 -1.4875,-3.2736 -3.693,-4.2418 0,0 2.014,1.4422 2.0448,4.5137 l -0.0444,0.009 -0.0133,0.857 c -0.003,0.2391 -0.0469,5.886 3.4886,8.8526 2.0654,1.7332 4.8207,2.1042 6.8008,2.1042 0.477,0 0.9038,-0.0222 1.2705,-0.0515 v 9.9149 h 2.1064 v -9.9149 c 0.3667,0.0293 0.7939,0.0515 1.2713,0.0515 1.9801,0 4.7353,-0.371 6.8008,-2.1042 3.5353,-2.9666 3.4921,-8.6135 3.4882,-8.8526 l -0.0129,-0.857 -0.0452,-0.009 c 0.0311,-3.0715 2.0452,-4.5137 2.0452,-4.5137 -2.2056,0.9682 -3.2233,2.7965 -3.6929,4.2418 -1.7329,-0.183 -5.7156,-0.2961 -8.4724,2.0172 -0.5402,0.4532 -0.9959,0.9693 -1.3821,1.519 v -4.8746 c 0.3667,0.0289 0.7939,0.0511 1.2713,0.0511 1.9801,0 4.7353,-0.371 6.8008,-2.1041 3.5353,-2.9666 3.4921,-8.6136 3.4882,-8.8523 l -0.0129,-0.8574 -0.0452,-0.008 c 0.0311,-3.0716 2.0452,-4.5138 2.0452,-4.5138 z"
       style="fill:url(#grad2)"
       id="path53" />
    <path
       d="m 262.0018,263.3587 v 19.6801 l 0.7835,1.1282 h -6.0795 l 0.7832,-1.1282 v -9.464 l -3.0396,5.2962 h -3.0084 l -3.0399,-5.2962 v 9.464 l 0.7521,1.1282 h -6.048 l 0.752,-1.1282 v -19.6801 l -0.752,-1.1282 h 5.2959 l 4.544,10.5922 4.5439,-10.5922 h 5.2963 z m 20.6444,20.8083 h -6.4244 l 0.7208,-0.9714 -0.5641,-2.0685 h -5.5468 l -0.5641,2.0685 0.7208,0.9714 h -6.4241 l 1.0026,-1.0029 5.453,-20.0563 -0.4388,-0.8773 h 6.0483 l -0.4388,0.8773 5.4527,20.0563 z m -10.7804,-6.8003 h 3.5098 l -1.7549,-6.4868 z m 25.8151,-2.507 c 0.0833,0.1253 0.146,0.2716 0.1879,0.4388 0.0417,0.167 0.0783,0.3132 0.1097,0.4385 0.0312,0.1253 0.0522,0.3082 0.0627,0.5485 0.0105,0.2401 0.0156,0.4179 0.0156,0.5327 0,0.1151 -0.005,0.3291 -0.0156,0.6426 -0.0105,0.3132 -0.0156,0.5326 -0.0156,0.6579 v 3.416 c 0,0.7311 -0.256,1.3527 -0.7679,1.8644 -0.512,0.5119 -1.1333,0.7679 -1.8647,0.7679 h -8.3358 c -0.7311,0 -1.3527,-0.256 -1.8646,-0.7679 -0.512,-0.5117 -0.7677,-1.1333 -0.7677,-1.8644 v -4.168 h 4.544 v 3.0084 h 4.5439 v -3.1964 l -6.8944,-4.168 c -0.5431,-0.3342 -0.9505,-0.6163 -1.222,-0.8462 -0.2716,-0.2299 -0.4805,-0.4804 -0.6268,-0.752 -0.2299,-0.4598 -0.3447,-1.2535 -0.3447,-2.3817 v -4.168 c 0,-0.7311 0.2557,-1.3527 0.7677,-1.8647 0.5119,-0.5116 1.1335,-0.7676 1.8646,-0.7676 h 8.3358 c 0.7314,0 1.3527,0.256 1.8647,0.7676 0.5119,0.512 0.7679,1.1336 0.7679,1.8647 v 3.416 l -4.5128,0.752 v -3.0084 h -4.5439 v 3.1025 l 7.5838,4.6066 c 0.5221,0.3133 0.8983,0.6894 1.1282,1.1282 z m 18.5343,0 c 0.0834,0.1253 0.146,0.2716 0.1879,0.4388 0.0417,0.167 0.0783,0.3132 0.1098,0.4385 0.0311,0.1253 0.0521,0.3082 0.0626,0.5485 0.0105,0.2401 0.0156,0.4179 0.0156,0.5327 0,0.1151 -0.005,0.3291 -0.0156,0.6426 -0.0105,0.3132 -0.0156,0.5326 -0.0156,0.6579 v 3.416 c 0,0.7311 -0.256,1.3527 -0.7679,1.8644 -0.5119,0.5119 -1.1333,0.7679 -1.8646,0.7679 h -8.3359 c -0.731,0 -1.3527,-0.256 -1.8646,-0.7679 -0.5119,-0.5117 -0.7676,-1.1333 -0.7676,-1.8644 v -4.168 h 4.5439 v 3.0084 h 4.5439 v -3.1964 l -6.8944,-4.168 c -0.5431,-0.3342 -0.9504,-0.6163 -1.222,-0.8462 -0.2716,-0.2299 -0.4805,-0.4804 -0.6267,-0.752 -0.2299,-0.4598 -0.3447,-1.2535 -0.3447,-2.3817 v -4.168 c 0,-0.7311 0.2557,-1.3527 0.7676,-1.8647 0.5119,-0.5116 1.1336,-0.7676 1.8646,-0.7676 h 8.3359 c 0.7313,0 1.3527,0.256 1.8646,0.7676 0.5119,0.512 0.7679,1.1336 0.7679,1.8647 v 3.416 l -4.5128,0.752 v -3.0084 h -4.5439 v 3.1025 l 7.5838,4.6066 c 0.5222,0.3133 0.8983,0.6894 1.1282,1.1282 z m 20.2368,9.3073 h -6.4244 l 0.7208,-0.9714 -0.5641,-2.0685 h -5.5468 l -0.5641,2.0685 0.7209,0.9714 h -6.4242 l 1.0026,-1.0029 5.453,-20.0563 -0.4388,-0.8773 h 6.0483 l -0.4388,0.8773 5.4527,20.0563 z m -10.7804,-6.8003 h 3.5098 l -1.7549,-6.4868 z m 25.8151,-2.507 c 0.0833,0.1253 0.146,0.2716 0.1879,0.4388 0.0417,0.167 0.0783,0.3132 0.1097,0.4385 0.0312,0.1253 0.0522,0.3082 0.0627,0.5485 0.0105,0.2401 0.0156,0.4179 0.0156,0.5327 0,0.1151 -0.005,0.3291 -0.0156,0.6426 -0.0105,0.3132 -0.0156,0.5326 -0.0156,0.6579 v 3.416 c 0,0.7311 -0.256,1.3527 -0.7679,1.8644 -0.5119,0.5119 -1.1333,0.7679 -1.8646,0.7679 h -8.3359 c -0.731,0 -1.3527,-0.256 -1.8646,-0.7679 -0.5119,-0.5117 -0.7676,-1.1333 -0.7676,-1.8644 v -4.168 h 4.5439 v 3.0084 h 4.5439 v -3.1964 l -6.8944,-4.168 c -0.5431,-0.3342 -0.9504,-0.6163 -1.222,-0.8462 -0.2716,-0.2299 -0.4805,-0.4804 -0.6267,-0.752 -0.2299,-0.4598 -0.3447,-1.2535 -0.3447,-2.3817 v -4.168 c 0,-0.7311 0.2557,-1.3527 0.7676,-1.8647 0.5119,-0.5116 1.1336,-0.7676 1.8646,-0.7676 h 8.3359 c 0.7313,0 1.3527,0.256 1.8646,0.7676 0.5119,0.512 0.7679,1.1336 0.7679,1.8647 v 3.416 l -4.5128,0.752 v -3.0084 h -4.5439 v 3.1025 l 7.5838,4.6066 c 0.5222,0.3133 0.8983,0.6894 1.1282,1.1282 z"
       style="fill:#c49750;fill-rule:evenodd"
       id="path55" />
    <g
       id="Layer1002">
      <defs
         id="defs68">
        <linearGradient
           id="grad3"
           gradientTransform="scale(1.9766197,0.5059142)"
           x1="115.87757"
           y1="700.43988"
           x2="185.12509"
           y2="700.43988"
           gradientUnits="userSpaceOnUse">
          <stop
             offset="0.0000%"
             stop-color="#a17128"
             stop-opacity="1.0000"
             id="stop57" />
          <stop
             offset="23.0000%"
             stop-color="#daae6b"
             stop-opacity="1.0000"
             id="stop59" />
          <stop
             offset="48.0000%"
             stop-color="#a5762d"
             stop-opacity="1.0000"
             id="stop61" />
          <stop
             offset="72.0000%"
             stop-color="#daae6b"
             stop-opacity="1.0000"
             id="stop63" />
          <stop
             offset="100.0000%"
             stop-color="#a17128"
             stop-opacity="1.0000"
             id="stop65" />
        </linearGradient>
      </defs>
      <path
         d="m 229.0459,373.5976 c 21.2052,10.3701 44.589,15.7982 68.4379,15.7982 23.8487,0 47.2315,-5.4281 68.4381,-15.7982 l -1.9384,-4.1068 c -0.7889,0.3731 -1.6705,0.5819 -2.6012,0.5819 -3.3647,0 -6.0924,-2.7277 -6.0924,-6.0926 0,-2.4342 1.4279,-4.5349 3.4915,-5.5106 l -1.9386,-4.107 c -18.7191,7.707 -38.8669,11.7156 -59.359,11.7156 -20.4921,0 -40.6405,-4.0086 -59.3589,-11.7156 l -1.9384,4.107 c 2.0638,0.9759 3.4915,3.0762 3.4915,5.5108 0,3.3647 -2.7277,6.0924 -6.0924,6.0924 -0.9306,0 -1.8124,-0.209 -2.6013,-0.5821 z"
         style="fill:url(#grad3)"
         id="path70" />
      <path
         d="m 233.4609,362.1076 c 0.9654,0 1.7478,0.7823 1.7478,1.7475 0,0.9655 -0.7824,1.7479 -1.7478,1.7479 -0.9652,0 -1.7476,-0.7824 -1.7476,-1.7479 0,-0.9652 0.7824,-1.7475 1.7476,-1.7475 z"
         style="fill:#ffffff;fill-rule:evenodd"
         id="path72" />
      <path
         d="m 361.3825,362.2323 c -0.9655,0 -1.7479,0.7823 -1.7479,1.7478 0,0.9655 0.7824,1.7479 1.7479,1.7479 0.9652,0 1.7478,-0.7824 1.7478,-1.7479 0,-0.9655 -0.7826,-1.7478 -1.7478,-1.7478 z"
         style="fill:#ffffff;fill-rule:evenodd"
         id="path74" />
      <path
         d="m 259.6471,365.5886 c 0.462,0.1364 0.8105,0.4151 1.0454,0.8356 0.2346,0.421 0.2839,0.8627 0.1478,1.3246 l -3.107,10.5374 c -0.1364,0.4625 -0.4174,0.8066 -0.8427,1.0327 -0.4256,0.2263 -0.8695,0.271 -1.3317,0.1349 l -7.4079,-2.1844 0.6856,-0.5729 3.6677,-12.4388 -0.2651,-0.8532 z m -4.5699,11.1179 2.6748,-9.0716 -2.8721,-0.8468 -2.6748,9.0716 z m 15.2532,-5.0641 -2.9061,-0.6302 0.21,-0.9688 -2.4419,-0.5295 -0.7397,3.4107 2.9263,0.6346 -0.0408,2.5268 -3.4106,-0.7397 -0.7398,3.4104 2.4419,0.5295 0.2103,-0.9687 2.906,0.6304 -0.7397,3.4105 -8.7587,-1.8995 0.642,-0.6215 2.7485,-12.6737 -0.3269,-0.8314 8.7589,1.8995 z m 9.215,6.2524 c 0.0431,0.0897 0.0707,0.191 0.0824,0.3036 0.0117,0.113 0.0222,0.2117 0.0312,0.2966 0.009,0.0844 0.006,0.2056 -0.01,0.3634 -0.0154,0.1576 -0.0286,0.2742 -0.0391,0.3493 -0.0104,0.0749 -0.0336,0.2141 -0.0692,0.4175 -0.0359,0.2035 -0.0593,0.3464 -0.071,0.4278 l -0.3149,2.229 c -0.0673,0.4771 -0.2919,0.859 -0.6729,1.1459 -0.381,0.2868 -0.8105,0.3963 -1.2873,0.3287 l -5.4392,-0.7685 c -0.4768,-0.0673 -0.8587,-0.2914 -1.1456,-0.6727 -0.2868,-0.3812 -0.3965,-0.8102 -0.3292,-1.2875 l 0.3844,-2.7195 2.9648,0.4191 -0.2773,1.9628 2.9648,0.4188 0.2949,-2.0856 -4.1143,-3.3548 c -0.3237,-0.2683 -0.5632,-0.49 -0.7193,-0.6648 -0.1561,-0.1749 -0.2693,-0.3578 -0.3395,-0.5483 -0.1078,-0.3212 -0.1095,-0.8498 -0.006,-1.5859 l 0.3844,-2.7197 c 0.0673,-0.4768 0.2917,-0.859 0.6729,-1.1458 0.3812,-0.2866 0.8102,-0.3964 1.2873,-0.329 l 5.4389,0.7685 c 0.4771,0.0676 0.859,0.2919 1.1456,0.6729 0.2868,0.3812 0.3966,0.8105 0.3293,1.2875 l -0.3149,2.2288 -3.0139,0.0746 0.2776,-1.9629 -2.9651,-0.419 -0.2858,2.0244 4.5233,3.7048 c 0.312,0.2527 0.5227,0.5327 0.632,0.84 z m 10.1154,-7.5314 c 0.4807,0.0325 0.8815,0.2286 1.2022,0.5881 0.3207,0.3595 0.4651,0.78 0.4327,1.2604 l -0.7373,10.9613 c -0.0322,0.4808 -0.2317,0.8778 -0.5976,1.1912 -0.3661,0.3134 -0.7895,0.4539 -1.2702,0.4217 l -7.706,-0.5185 0.5444,-0.7085 0.8705,-12.9391 -0.4447,-0.7749 z m -2.0387,11.8464 0.6348,-9.4364 -2.9875,-0.201 -0.6348,9.4365 z m 13.7812,-8.2172 -2.9736,0.0181 -0.006,-0.9912 -2.4988,0.0154 0.0212,3.4899 2.9944,-0.0183 0.5107,2.4749 -3.4899,0.0212 0.0212,3.4897 2.4987,-0.0151 -0.006,-0.9913 2.9736,-0.0182 0.0213,3.4899 -8.9621,0.0546 0.491,-0.7463 -0.0791,-12.9681 -0.5,-0.7405 8.9621,-0.0546 z m 13.7876,7.4202 1.9924,-0.2076 0.2588,2.4853 -6.9423,0.723 -0.2588,-2.4851 1.9924,-0.2076 -0.9797,-9.4069 -1.9924,0.2075 0.2341,-2.5365 4.457,-0.4641 z m 10.886,-12.0864 1.9541,10.8105 c 0.0848,0.4747 -0.0125,0.9078 -0.2917,1.3005 -0.2795,0.3927 -0.6566,0.6312 -1.1307,0.7161 l -5.387,0.9634 c -0.4744,0.0849 -0.9105,-0.008 -1.3086,-0.2798 -0.3982,-0.2714 -0.6397,-0.6443 -0.7246,-1.1187 l -0.3963,-2.2158 2.8604,-1.0149 0.3491,1.9514 2.9475,-0.5273 -0.7017,-3.9228 -4.1875,0.7487 c -0.4742,0.0849 -0.9071,-0.009 -1.2985,-0.2819 -0.3915,-0.2727 -0.6295,-0.6461 -0.7144,-1.1202 l -0.7925,-4.4317 c -0.0848,-0.4741 0.009,-0.907 0.2818,-1.2985 0.2726,-0.3912 0.646,-0.6295 1.1204,-0.7144 l 5.4073,-0.9668 c 0.4741,-0.0849 0.9073,0.009 1.2982,0.2817 0.3915,0.2724 0.6298,0.6461 0.7147,1.1205 z m -2.2656,4.2231 -0.5271,-2.9475 -2.9477,0.527 0.5273,2.9475 z m 12.0927,-6.6365 2.7388,10.6389 c 0.1192,0.467 0.0541,0.9063 -0.1959,1.3182 -0.25,0.4122 -0.6085,0.6776 -1.0753,0.7969 l -5.3022,1.3543 c -0.4668,0.1193 -0.9085,0.0583 -1.3255,-0.1834 -0.4169,-0.2417 -0.6852,-0.5958 -0.8044,-1.0627 l -0.5571,-2.1809 2.7785,-1.2214 0.4907,1.9209 2.9012,-0.7412 -0.9863,-3.8614 -4.1219,1.0529 c -0.4666,0.1193 -0.9051,0.0571 -1.3154,-0.1863 -0.4104,-0.2432 -0.6753,-0.5983 -0.7943,-1.0649 l -1.1144,-4.3619 c -0.1193,-0.4668 -0.0571,-0.9056 0.1863,-1.3158 0.2434,-0.41 0.5983,-0.6749 1.0651,-0.7942 l 5.3222,-1.3594 c 0.4668,-0.1193 0.9056,-0.0571 1.3155,0.186 0.4103,0.2432 0.6752,0.5986 0.7944,1.0654 z m -1.9509,4.3775 -0.741,-2.9014 -2.9012,0.7412 0.741,2.9012 z m 4.3323,-6.9172 6.8809,-2.2127 1.3717,4.2661 c 0.2276,0.7078 0.3156,1.229 0.2641,1.5638 -0.0743,0.443 -0.2648,0.9851 -0.5721,1.6264 -0.3073,0.6412 -0.4954,1.1246 -0.5642,1.4502 -0.2183,0.8946 -0.1168,1.997 0.3047,3.3077 l 0.7902,2.4573 -2.8507,0.9168 -0.7649,-2.3787 c -0.5773,-1.7956 -0.7397,-3.3124 -0.487,-4.5504 0.0822,-0.3737 0.2524,-0.9237 0.5104,-1.65 0.2581,-0.7266 0.4439,-1.3178 0.5576,-1.7739 l -0.6258,-1.9461 -2.8505,0.9166 0.6068,1.8873 -3.0024,0.4449 -0.689,-2.1429 c -0.1475,-0.4585 -0.1122,-0.9002 0.1056,-1.3246 0.2181,-0.4242 0.5561,-0.7103 1.0146,-0.8578 z"
         style="fill:#132245;fill-rule:evenodd"
         id="path76" />
    </g>
    <g
       id="Layer1003">
      <g
         id="Layer1004">
        <path
           d="m 343.4769,233.803 -1.6658,3.376 -3.7259,0.542 2.6958,2.628 -0.6361,3.7103 3.332,-1.7518 3.3325,1.7518 -0.6361,-3.7103 2.6958,-2.628 -3.7261,-0.542 z"
           style="fill:#ffffff;fill-rule:evenodd"
           id="path79" />
        <path
           d="m 328.0479,230.385 -2.2218,4.5012 -4.9677,0.7222 3.5949,3.5035 -0.8483,4.9474 4.4429,-2.3356 4.4435,2.3356 -0.8491,-4.9474 3.5944,-3.5035 -4.967,-0.7222 z"
           style="fill:#ffffff;fill-rule:evenodd"
           id="path81" />
      </g>
      <g
         id="Layer1005">
        <path
           d="m 251.4909,233.803 1.6658,3.376 3.7259,0.542 -2.6959,2.628 0.6362,3.7103 -3.332,-1.7518 -3.3326,1.7518 0.6362,-3.7103 -2.6959,-2.628 3.7261,-0.542 z"
           style="fill:#ffffff;fill-rule:evenodd"
           id="path84" />
        <path
           d="m 266.9198,230.385 2.2218,4.5012 4.9678,0.7222 -3.595,3.5035 0.8484,4.9474 -4.443,-2.3356 -4.4435,2.3356 0.8491,-4.9474 -3.5943,-3.5035 4.967,-0.7222 z"
           style="fill:#ffffff;fill-rule:evenodd"
           id="path86" />
      </g>
    </g>
  </g>
</svg>
